<mxfile host="app.diagrams.net" modified="2024-04-03T20:18:32.802Z" agent="Mozilla/5.0 (Windows NT 10.0; Win64; x64) AppleWebKit/537.36 (KHTML, like Gecko) Chrome/123.0.0.0 Safari/537.36" etag="Q4nviYMXXnw_7OWNC0wh" version="24.2.2" type="device">
  <diagram name="PÃ¡gina-1" id="khX6XF_-ktPZALbZLBgz">
    <mxGraphModel dx="880" dy="468" grid="1" gridSize="10" guides="1" tooltips="1" connect="1" arrows="1" fold="1" page="1" pageScale="1" pageWidth="827" pageHeight="1169" math="0" shadow="0">
      <root>
        <mxCell id="0" />
        <mxCell id="1" parent="0" />
        <mxCell id="t70WNRDG8NUuXMakOu10-1" value="equipe" style="whiteSpace=wrap;html=1;align=center;" vertex="1" parent="1">
          <mxGeometry x="160" y="120" width="100" height="40" as="geometry" />
        </mxCell>
        <mxCell id="t70WNRDG8NUuXMakOu10-2" value="atleta" style="whiteSpace=wrap;html=1;align=center;" vertex="1" parent="1">
          <mxGeometry x="500" y="120" width="100" height="40" as="geometry" />
        </mxCell>
        <mxCell id="t70WNRDG8NUuXMakOu10-5" style="edgeStyle=orthogonalEdgeStyle;rounded=0;orthogonalLoop=1;jettySize=auto;html=1;entryX=0;entryY=0.5;entryDx=0;entryDy=0;" edge="1" parent="1" source="t70WNRDG8NUuXMakOu10-4" target="t70WNRDG8NUuXMakOu10-2">
          <mxGeometry relative="1" as="geometry" />
        </mxCell>
        <mxCell id="t70WNRDG8NUuXMakOu10-6" style="edgeStyle=orthogonalEdgeStyle;rounded=0;orthogonalLoop=1;jettySize=auto;html=1;entryX=1;entryY=0.5;entryDx=0;entryDy=0;" edge="1" parent="1" source="t70WNRDG8NUuXMakOu10-4" target="t70WNRDG8NUuXMakOu10-1">
          <mxGeometry relative="1" as="geometry" />
        </mxCell>
        <mxCell id="t70WNRDG8NUuXMakOu10-4" value="inscrito" style="shape=rhombus;perimeter=rhombusPerimeter;whiteSpace=wrap;html=1;align=center;" vertex="1" parent="1">
          <mxGeometry x="320" y="110" width="120" height="60" as="geometry" />
        </mxCell>
        <mxCell id="t70WNRDG8NUuXMakOu10-7" value="codigo" style="ellipse;whiteSpace=wrap;html=1;align=center;fontStyle=4;" vertex="1" parent="1">
          <mxGeometry x="150" y="20" width="100" height="40" as="geometry" />
        </mxCell>
        <mxCell id="t70WNRDG8NUuXMakOu10-8" style="edgeStyle=orthogonalEdgeStyle;rounded=0;orthogonalLoop=1;jettySize=auto;html=1;entryX=0.63;entryY=0.075;entryDx=0;entryDy=0;entryPerimeter=0;" edge="1" parent="1" source="t70WNRDG8NUuXMakOu10-7" target="t70WNRDG8NUuXMakOu10-1">
          <mxGeometry relative="1" as="geometry" />
        </mxCell>
        <mxCell id="t70WNRDG8NUuXMakOu10-10" style="edgeStyle=orthogonalEdgeStyle;rounded=0;orthogonalLoop=1;jettySize=auto;html=1;entryX=0.25;entryY=0;entryDx=0;entryDy=0;" edge="1" parent="1" source="t70WNRDG8NUuXMakOu10-9" target="t70WNRDG8NUuXMakOu10-1">
          <mxGeometry relative="1" as="geometry" />
        </mxCell>
        <mxCell id="t70WNRDG8NUuXMakOu10-9" value="nome" style="ellipse;whiteSpace=wrap;html=1;align=center;" vertex="1" parent="1">
          <mxGeometry x="50" y="50" width="100" height="40" as="geometry" />
        </mxCell>
        <mxCell id="t70WNRDG8NUuXMakOu10-12" style="edgeStyle=orthogonalEdgeStyle;rounded=0;orthogonalLoop=1;jettySize=auto;html=1;entryX=0;entryY=0.5;entryDx=0;entryDy=0;" edge="1" parent="1" source="t70WNRDG8NUuXMakOu10-11" target="t70WNRDG8NUuXMakOu10-1">
          <mxGeometry relative="1" as="geometry" />
        </mxCell>
        <mxCell id="t70WNRDG8NUuXMakOu10-11" value="cidade" style="ellipse;whiteSpace=wrap;html=1;align=center;" vertex="1" parent="1">
          <mxGeometry x="10" y="110" width="100" height="40" as="geometry" />
        </mxCell>
        <mxCell id="t70WNRDG8NUuXMakOu10-14" style="edgeStyle=orthogonalEdgeStyle;rounded=0;orthogonalLoop=1;jettySize=auto;html=1;entryX=0.25;entryY=1;entryDx=0;entryDy=0;" edge="1" parent="1" source="t70WNRDG8NUuXMakOu10-13" target="t70WNRDG8NUuXMakOu10-1">
          <mxGeometry relative="1" as="geometry" />
        </mxCell>
        <mxCell id="t70WNRDG8NUuXMakOu10-13" value="estado" style="ellipse;whiteSpace=wrap;html=1;align=center;" vertex="1" parent="1">
          <mxGeometry x="40" y="180" width="100" height="40" as="geometry" />
        </mxCell>
        <mxCell id="t70WNRDG8NUuXMakOu10-17" value="nome" style="ellipse;whiteSpace=wrap;html=1;align=center;" vertex="1" parent="1">
          <mxGeometry x="620" y="60" width="100" height="40" as="geometry" />
        </mxCell>
        <mxCell id="t70WNRDG8NUuXMakOu10-20" style="edgeStyle=orthogonalEdgeStyle;rounded=0;orthogonalLoop=1;jettySize=auto;html=1;entryX=1;entryY=0.25;entryDx=0;entryDy=0;" edge="1" parent="1" source="t70WNRDG8NUuXMakOu10-18" target="t70WNRDG8NUuXMakOu10-2">
          <mxGeometry relative="1" as="geometry" />
        </mxCell>
        <mxCell id="t70WNRDG8NUuXMakOu10-18" value="peso" style="ellipse;whiteSpace=wrap;html=1;align=center;" vertex="1" parent="1">
          <mxGeometry x="660" y="110" width="100" height="40" as="geometry" />
        </mxCell>
        <mxCell id="t70WNRDG8NUuXMakOu10-19" style="edgeStyle=orthogonalEdgeStyle;rounded=0;orthogonalLoop=1;jettySize=auto;html=1;entryX=0.93;entryY=-0.1;entryDx=0;entryDy=0;entryPerimeter=0;" edge="1" parent="1" source="t70WNRDG8NUuXMakOu10-17" target="t70WNRDG8NUuXMakOu10-2">
          <mxGeometry relative="1" as="geometry" />
        </mxCell>
        <mxCell id="t70WNRDG8NUuXMakOu10-22" style="edgeStyle=orthogonalEdgeStyle;rounded=0;orthogonalLoop=1;jettySize=auto;html=1;entryX=1;entryY=0.75;entryDx=0;entryDy=0;" edge="1" parent="1" source="t70WNRDG8NUuXMakOu10-21" target="t70WNRDG8NUuXMakOu10-2">
          <mxGeometry relative="1" as="geometry" />
        </mxCell>
        <mxCell id="t70WNRDG8NUuXMakOu10-21" value="altura" style="ellipse;whiteSpace=wrap;html=1;align=center;" vertex="1" parent="1">
          <mxGeometry x="650" y="160" width="100" height="40" as="geometry" />
        </mxCell>
        <mxCell id="t70WNRDG8NUuXMakOu10-24" style="edgeStyle=orthogonalEdgeStyle;rounded=0;orthogonalLoop=1;jettySize=auto;html=1;entryX=0.5;entryY=1;entryDx=0;entryDy=0;" edge="1" parent="1" source="t70WNRDG8NUuXMakOu10-23" target="t70WNRDG8NUuXMakOu10-2">
          <mxGeometry relative="1" as="geometry" />
        </mxCell>
        <mxCell id="t70WNRDG8NUuXMakOu10-23" value="idade" style="ellipse;whiteSpace=wrap;html=1;align=center;" vertex="1" parent="1">
          <mxGeometry x="550" y="200" width="100" height="40" as="geometry" />
        </mxCell>
        <mxCell id="t70WNRDG8NUuXMakOu10-26" style="edgeStyle=orthogonalEdgeStyle;rounded=0;orthogonalLoop=1;jettySize=auto;html=1;" edge="1" parent="1" source="t70WNRDG8NUuXMakOu10-25" target="t70WNRDG8NUuXMakOu10-2">
          <mxGeometry relative="1" as="geometry" />
        </mxCell>
        <mxCell id="t70WNRDG8NUuXMakOu10-25" value="codigo" style="ellipse;whiteSpace=wrap;html=1;align=center;fontStyle=4;" vertex="1" parent="1">
          <mxGeometry x="520" y="20" width="100" height="40" as="geometry" />
        </mxCell>
      </root>
    </mxGraphModel>
  </diagram>
</mxfile>
